<svg xmlns="http://www.w3.org/2000/svg" width="124" height="36" fill="none"><rect width="124" height="36" fill="#000" rx="4"/><path fill="#fff" d="m17.984 23 1.024-2.704h4.528L24.56 23h1.984l-4.192-10.72h-2.08L16.08 23h1.904Zm2.72-7.168.576-1.936.576 1.936 1.088 2.896H19.6l1.104-2.896Zm9.21 7.344c1.552 0 2.208-1.04 2.464-2.24V23h1.792V12.28h-1.792v5.024c-.256-1.216-.944-2.256-2.496-2.256-1.888 0-3.104 1.552-3.104 4.064s1.216 4.064 3.136 4.064Zm-1.296-4.064c0-1.744.848-2.608 1.968-2.608 1.264 0 1.792.848 1.792 2.128v.976c0 1.28-.528 2.112-1.776 2.112-1.136 0-1.984-.848-1.984-2.608Zm10.14 4.064c1.551 0 2.207-1.04 2.463-2.24V23h1.792V12.28h-1.792v5.024c-.256-1.216-.944-2.256-2.496-2.256-1.888 0-3.104 1.552-3.104 4.064s1.216 4.064 3.136 4.064Zm-1.297-4.064c0-1.744.848-2.608 1.968-2.608 1.264 0 1.792.848 1.792 2.128v.976c0 1.28-.528 2.112-1.776 2.112-1.136 0-1.984-.848-1.984-2.608Zm13.98 1.552c1.92 0 3.216-1.152 3.216-2.8 0-.976-.448-1.776-1.216-2.272l1.456-1.6-1.728-.592-.384 1.872a3.945 3.945 0 0 0-1.344-.224c-1.92 0-3.232 1.168-3.232 2.816 0 .992.48 1.808 1.264 2.288-.72.496-1.328 1.184-1.328 1.888 0 .592.368.96.928 1.12-.752.176-1.456.576-1.456 1.312 0 .976 1.264 1.664 3.44 1.664 2.832 0 4.272-1.12 4.272-2.592 0-1.168-.848-1.792-2.4-1.792h-2.512c-.72 0-.928-.208-.928-.608 0-.272.176-.576.32-.816.464.224 1.024.336 1.632.336Zm0-1.28c-.848 0-1.52-.544-1.52-1.52s.672-1.52 1.52-1.52 1.52.544 1.52 1.52-.672 1.52-1.52 1.52Zm-.304 5.408c-1.424 0-2.064-.336-2.064-.912 0-.272.192-.528.368-.704h3.248c.688 0 1.024.176 1.024.592 0 .656-.896 1.024-2.576 1.024Zm6.924-1.632c1.632 0 2.384-1.216 2.624-2.24v.576c0 1.12.656 1.504 1.488 1.504h1.104v-1.536h-.496c-.288 0-.416-.112-.416-.464v-2.928c0-1.92-1.088-3.024-3.024-3.024-1.728 0-2.944.896-3.552 1.728l1.072 1.28c.448-.816 1.264-1.424 2.304-1.424 1.072 0 1.424.528 1.488 1.312l-2.608 1.104c-1.264.496-2.032 1.168-2.032 2.272 0 1.12.768 1.84 2.048 1.84Zm-.32-2.112c0-.4.272-.672.944-.976l2-.896v.832c0 1.056-.8 1.76-1.984 1.76-.656 0-.96-.272-.96-.72ZM66.439 23v-4.288c0-1.296.832-2.32 1.728-2.32.528 0 .736.352.736.784 0 .448-.24.96-.496 1.216h1.84c.144-.24.352-.8.352-1.552 0-1.152-.72-1.792-1.696-1.792-1.392 0-2.176 1.12-2.464 2.368v-2.208h-1.792V23h1.792Zm7.016 0v-4.368c0-1.28.448-2.128 1.504-2.128s1.504.544 1.504 1.616V23h1.792v-4.368c0-1.28.448-2.128 1.504-2.128s1.504.544 1.504 1.616V23h1.792v-5.424c0-1.616-.784-2.528-2.272-2.528-1.488 0-2.256 1.072-2.528 2.304-.08-1.472-.848-2.304-2.272-2.304-1.472 0-2.24 1.056-2.528 2.288v-2.128h-1.792V23h1.792Zm14.867.16c1.728 0 2.784-.784 3.376-1.68l-1.104-1.152c-.288.656-.896 1.36-2.256 1.36-1.232 0-2.048-.752-2.144-2.144h5.568c.032-.16.064-.496.064-.784 0-2.16-1.296-3.712-3.632-3.712-2.192 0-3.712 1.616-3.712 4.064 0 2.432 1.52 4.048 3.84 4.048Zm-.128-6.672c1.184 0 1.888.672 2.016 1.904h-4c.144-1.264.88-1.904 1.984-1.904ZM95.189 23v-4.368c0-1.28.448-2.128 1.76-2.128 1.2 0 1.52.656 1.52 1.616V23h1.808v-5.424c0-1.616-.928-2.528-2.448-2.528-1.552 0-2.352 1.056-2.64 2.288v-2.128h-1.792V23h1.792Zm9.54.176c1.136 0 1.904-.528 2.24-1.024l-.56-1.6c-.224.448-.672.944-1.28.944-.528 0-.928-.208-.928-1.056V16.6h2.384v-1.392h-2.384v-2.08l-1.792 1.136v.944h-1.216V16.6h1.216v4.272c0 1.376.848 2.304 2.32 2.304Z"/></svg>